<svg width="151" height="71" viewBox="0 0 151 71" fill="none" xmlns="http://www.w3.org/2000/svg">
<g opacity="1">
<g clip-path="url(#clip0_2189_7)">
<path d="M20.9524 39.4223C21.1537 39.825 21.1537 40.429 20.9524 40.8317C20.751 41.4357 20.3484 42.0397 19.1403 42.0397C17.9323 42.0397 17.3283 41.4357 17.3283 40.429V38.617H12.4961V40.0263C12.4961 44.0531 15.7175 45.2612 19.1403 45.2612C22.3618 45.2612 25.1805 44.0531 25.5832 41.033C25.7845 39.4223 25.5832 38.4156 25.5832 38.0129C24.7778 34.1875 17.9323 32.9794 17.3283 30.966C17.3283 30.5634 17.3283 30.362 17.3283 29.9593C17.5296 29.3553 17.9323 28.7513 18.939 28.7513C19.9457 28.7513 20.5497 29.3553 20.5497 30.362V31.5701H25.1805V30.362C25.1805 26.3352 21.5564 25.7312 19.1403 25.7312C15.9189 25.7312 13.3015 26.7379 12.6974 29.758C12.4961 30.5634 12.4961 31.3687 12.6974 32.1741C13.5028 35.9995 19.9457 37.0062 20.9524 39.4223Z" fill="#6E6E6E"/>
<path d="M78.4458 39.4224C78.6471 39.8251 78.6471 40.4291 78.4458 40.8318C78.2444 41.4358 77.8418 42.0399 76.6337 42.0399C75.4257 42.0399 74.8217 41.4358 74.8217 40.4291V38.6171H69.9895V40.0265C69.9895 44.0533 73.2109 45.2613 76.6337 45.2613C79.8552 45.2613 82.6739 44.0533 83.0766 41.0332C83.2779 39.4224 83.0766 38.4157 83.0766 38.0131C82.2712 34.1876 75.4257 32.9796 74.8217 30.9662C74.8217 30.5635 74.8217 30.3621 74.8217 29.9595C75.023 29.3554 75.4257 28.7514 76.4324 28.7514C77.4391 28.7514 78.0431 29.3554 78.0431 30.3621V31.5702H82.6739V30.3621C82.6739 26.3353 79.0498 25.7313 76.6337 25.7313C73.4123 25.7313 70.7949 26.738 70.1908 29.7581C69.9895 30.5635 69.9895 31.3688 70.1908 32.1742C70.9962 35.9997 77.4391 37.0064 78.4458 39.4224Z" fill="#6E6E6E"/>
<path d="M31.8248 26.3353L28.402 44.4559H33.2341L35.6502 27.946H35.8516L38.469 44.4559H43.3011L39.8784 26.3353H31.8248ZM59.4083 26.3353L57.1936 40.2278H56.9923L54.7775 26.3353H47.3279L46.9253 44.4559H51.5561L51.7574 28.1474H51.9588L54.9789 44.4559H59.6097L62.6298 28.1474V44.4559H67.2606L66.6566 26.3353H59.4083Z" fill="#6E6E6E"/>
<path d="M93.3122 41.8384C94.5202 41.8384 94.9229 41.033 95.1242 40.429C95.1242 40.2276 95.1242 40.0263 95.1242 39.825V26.3352H99.7551V39.4223C99.7551 39.825 99.7551 40.2276 99.7551 40.6303C99.3524 44.0531 96.735 45.0598 93.5135 45.0598C90.0907 45.0598 87.4733 44.0531 87.272 40.6303C87.272 40.429 87.272 39.825 87.272 39.4223V26.3352H91.9028V39.825C91.9028 40.0263 91.9028 40.2276 91.9028 40.429C91.5001 41.033 91.9028 41.8384 93.3122 41.8384ZM115.46 26.3352L115.661 40.6303L111.433 26.3352H104.789V44.2544H109.218L109.017 29.5566L113.446 44.2544H119.889V26.3352H115.46ZM131.164 41.637C132.573 41.637 132.976 40.8317 132.976 40.2276C132.976 40.0263 132.976 39.825 132.976 39.6236V37.0062H131.164V34.3888H137.607V39.2209C137.607 39.6236 137.607 39.825 137.607 40.429C137.406 43.6504 134.386 44.8585 131.164 44.8585C127.943 44.8585 125.124 43.6504 124.721 40.429C124.721 39.825 124.721 39.6236 124.721 39.2209V31.57C124.721 31.1673 124.721 30.7647 124.721 30.362C125.124 26.9392 127.943 25.9325 131.164 25.9325C134.386 25.9325 137.204 26.9392 137.607 30.362C137.607 30.966 137.607 31.57 137.607 31.57V32.174H132.976V31.1673C132.976 31.1673 132.976 30.7647 132.976 30.5633C132.976 30.1606 132.573 29.1539 131.164 29.1539C129.755 29.1539 129.553 29.9593 129.352 30.5633C129.352 30.7647 129.352 31.1673 129.352 31.3687V39.6236C129.352 39.825 129.352 40.0263 129.352 40.2276C129.352 40.8317 129.755 41.637 131.164 41.637Z" fill="#6E6E6E"/>
</g>
</g>
<defs>
<clipPath id="clip0_2189_7">
<rect width="151" height="71" rx="8" fill="white"/>
</clipPath>
</defs>
</svg>
